<?xml version="1.0" encoding="utf-8"?>
<!-- Generator: Adobe Illustrator 19.0.0, SVG Export Plug-In . SVG Version: 6.00 Build 0)  -->
<svg version="1.1" id="Calque_1" xmlns="http://www.w3.org/2000/svg" xmlns:xlink="http://www.w3.org/1999/xlink" x="0px" y="0px"
	 viewBox="974 52 2560 690" style="enable-background:new 974 52 2560 690;" xml:space="preserve">
<style type="text/css">
	.st0{fill:#FFFFFF;}
	.st1{fill:url(#path-2_2_);}
	.st2{opacity:7.000000e-002;fill:#FFCCCC;enable-background:new    ;}
	.st3{opacity:0.1;fill:#FFCC99;enable-background:new    ;}
	.st4{opacity:0.2;fill:#FFD0B3;enable-background:new    ;}
	.st5{opacity:0.1;fill:url(#Path-7_3_);enable-background:new    ;}
</style>
<title>bg</title>
<desc>Created with Sketch.</desc>
<g>
	<rect x="974.1" y="51.9" class="st0" width="2560" height="690.1"/>
	<g>
		<path id="path-2" class="st0" d="M974.1,51.9h2560v610c-426.7,53.3-853.3,80-1280,80s-853.3-26.7-1280-80V51.9z"/>
	</g>
	
		<linearGradient id="path-2_2_" gradientUnits="userSpaceOnUse" x1="5843.1538" y1="792.9799" x2="5842.1147" y2="793.9354" gradientTransform="matrix(2560 0 0 -690 -14954796 547866)">
		<stop  offset="3.268069e-003" style="stop-color:#D8143A"/>
		<stop  offset="0.6566" style="stop-color:#FF7275"/>
		<stop  offset="1" style="stop-color:#FF3F62"/>
	</linearGradient>
	<path id="path-2_1_" class="st1" d="M974,52h2560v610c-426.7,53.3-853.3,80-1280,80s-853.3-26.7-1280-80L974,52L974,52z"/>
	<g id="Group-6">
		<g transform="translate(-304.000000, -739.000000)">
			<path id="Path-2" class="st2" d="M3843,1179.3c-464.5-89-757.3-98.1-878.4-27.2c-181.6,106.4-106.1,205.1-263.5,260.4
				s-369.1,67.4-422.3,178.9s-592.9,106.2-505.1-58.4s461-96.1,505.1-294.9c44.1-198.8-319.6-179.9-404.9-263
				c-56.9-55.4-56.9-116.8,0-184.1H974v900.5h2869V1179.3z"/>
			<path id="Path-5" class="st3" d="M2986.2,1564.8c558-396.7,781.5-581.8,670.4-555.4c-166.6,39.7-120.4-39.7-441,83.3
				S2787.9,1188,2657,1426C2569.7,1584.7,2679.5,1630.9,2986.2,1564.8z"/>
			<path id="Path-6" class="st4" d="M1267.5,859.9c30.7-5.9,48.4-2.7,53.2,9.6c7.2,18.5,66.5-30.5,63.1,19.7s-26.9,87.1-62.3,106.6
				s-90.1,17.5-111.6-44.9C1195.6,909.4,1214.8,879.1,1267.5,859.9z"/>
			<path id="Path-7" class="st3" d="M3690.1,305.9c-173.7,126.9-210.4,147-250.5,290.6s-608,477.7-454.3,474.3
				c153.7-3.3,294-110.2,454.3-130.3c160.3-20,217.1-116.9,340.7-213.8c82.4-64.6,238.3-226,467.7-484.4
				c-109.1,33.4-148.1-3.3-116.9-110.2c46.8-160.3-223.8-43.4-287.3,33.4C3780.3,242.4,3863.8,179,3690.1,305.9z"/>
			<path id="Path-7_1_" class="st3" d="M1787.9,1856.4c-200.6,77.7-103.5,38-184.7,95.7c-81.2,57.8-372.8,100.7-286.1-42.1
				c57.8-95.2,29.6-140.8-84.4-136.7c288.4-190.2,480.8-305.8,577.1-346.8c144.5-61.6,224.4-140.5,384.4-118.3
				c160.1,22.1,323.3-44.8,472.5-8.3c149.3,36.5-485.7,212.2-561.6,340.6S1988.5,1778.8,1787.9,1856.4z"/>
			
				<linearGradient id="Path-7_3_" gradientUnits="userSpaceOnUse" x1="6759.6807" y1="1532.5294" x2="6760.3506" y2="1532.9767" gradientTransform="matrix(-1456.7214 0 0 717.5326 9849544 -1098921.875)">
				<stop  offset="0" style="stop-color:#FFE8C9;stop-opacity:0"/>
				<stop  offset="1" style="stop-color:#FFCC99"/>
			</linearGradient>
			<path id="Path-7_2_" class="st5" d="M2508.4,533.9c200.6-77.7,103.5-38,184.7-95.7c81.2-57.8,372.8-100.7,286.1,42.1
				c-57.8,95.2-29.6,140.8,84.4,136.7c-288.4,190.2-480.8,305.8-577.1,346.8c-144.5,61.6-224.4,140.5-384.4,118.3
				c-160.1-22.1-323.3,44.8-472.5,8.3c-149.3-36.5,485.7-212.2,561.6-340.6S2307.8,611.6,2508.4,533.9z"/>
			<path id="Path-9" class="st4" d="M3852.2,990.2c-40.3-4.5-67.1,4.3-80.4,26.6c-20,33.4-5,79.1,34.9,70.9s46.1,27.3,76.7,8.2
				c30.5-19.1,41.8-89.3,11.8-97.5C3875.3,992.9,3861,990.2,3852.2,990.2z"/>
		</g>
	</g>
</g>
<g>
	<path class="st0" d="M3534,741.9v-80c-426.7,53.3-853.3,80-1280,80H3534z"/>
	<path class="st0" d="M974,741.9h1280c-426.7,0-853.3-26.7-1280-80L974,741.9L974,741.9z"/>
</g>
</svg>
