<svg id="visual" viewBox="0 0 900 400" width="900" height="400" xmlns="http://www.w3.org/2000/svg" xmlns:xlink="http://www.w3.org/1999/xlink" version="1.1"><rect x="0" y="0" width="900" height="400" fill="#ED4245"></rect><path d="M0 198L25 205.3C50 212.7 100 227.3 150 221.2C200 215 250 188 300 177.5C350 167 400 173 450 190.8C500 208.7 550 238.3 600 251.8C650 265.3 700 262.7 750 252.7C800 242.7 850 225.3 875 216.7L900 208L900 401L875 401C850 401 800 401 750 401C700 401 650 401 600 401C550 401 500 401 450 401C400 401 350 401 300 401C250 401 200 401 150 401C100 401 50 401 25 401L0 401Z" fill="#f1f1f1" stroke-linecap="round" stroke-linejoin="miter"></path></svg>